HIERARCHY
ROOT Hips
{
	OFFSET 0.000000 0.000000 0.000000
	CHANNELS 6 Xposition Yposition Zposition Xrotation Yrotation Zrotation
	JOINT LeftUpLeg_virtual
	{
		OFFSET 0.000000 0.000000 0.000000
		CHANNELS 3 Xrotation Yrotation Zrotation
		JOINT LeftUpLeg
		{
			OFFSET 15.427100 -6.655098 0.678600
			CHANNELS 3 Xrotation Yrotation Zrotation
			JOINT LeftLeg
			{
				OFFSET 4.081073 -39.591068 13.024000
				CHANNELS 3 Xrotation Yrotation Zrotation
				JOINT LeftFoot
				{
					OFFSET -4.081074 -37.707932 -15.979700
					CHANNELS 3 Xrotation Yrotation Zrotation
					JOINT LeftToeBase
					{
						OFFSET 5.346399 -15.068900 20.645000
						CHANNELS 3 Xrotation Yrotation Zrotation
						JOINT LeftToe_End
						{
							OFFSET 2.754700 0.931300 11.300900
							CHANNELS 3 Xrotation Yrotation Zrotation
							End Site
							{
								OFFSET 0 0 0
							}
						}
					}
				}
			}
		}
	}
	JOINT RightUpLeg_virtual
	{
		OFFSET 0.000000 0.000000 0.000000
		CHANNELS 3 Xrotation Yrotation Zrotation
		JOINT RightUpLeg
		{
			OFFSET -15.569500 -6.655098 0.678600
			CHANNELS 3 Xrotation Yrotation Zrotation
			JOINT RightLeg
			{
				OFFSET -4.081825 -39.591045 13.023800
				CHANNELS 3 Xrotation Yrotation Zrotation
				JOINT RightFoot
				{
					OFFSET 4.081824 -37.707954 -15.979600
					CHANNELS 3 Xrotation Yrotation Zrotation
					JOINT RightToeBase
					{
						OFFSET -5.346400 -15.068900 20.645000
						CHANNELS 3 Xrotation Yrotation Zrotation
						JOINT RightToe_End
						{
							OFFSET -2.754700 0.931300 11.300900
							CHANNELS 3 Xrotation Yrotation Zrotation
							End Site
							{
								OFFSET 0 0 0
							}
						}
					}
				}
			}
		}
	}
	JOINT Spine_virtual
	{
		OFFSET 0.000000 0.000000 0.000000
		CHANNELS 3 Xrotation Yrotation Zrotation
		JOINT Spine
		{
			OFFSET -0.279200 12.230698 -2.892100
			CHANNELS 3 Xrotation Yrotation Zrotation
			JOINT Spine1
			{
				OFFSET -0.232667 10.192268 -1.242267
				CHANNELS 3 Xrotation Yrotation Zrotation
				JOINT Spine1_split
				{
					OFFSET -0.232667 10.192268 -1.242267
					CHANNELS 3 Xrotation Yrotation Zrotation
					JOINT Spine2
					{
						OFFSET -0.232667 10.192268 -1.242267
						CHANNELS 3 Xrotation Yrotation Zrotation
						JOINT Neck_virtual
						{
							OFFSET 0.000000 0.000000 0.000000
							CHANNELS 3 Xrotation Yrotation Zrotation
							JOINT Neck
							{
								OFFSET -0.418800 17.814194 8.416900
								CHANNELS 3 Xrotation Yrotation Zrotation
								JOINT Head
								{
									OFFSET 0.000000 7.031097 3.806800
									CHANNELS 3 Xrotation Yrotation Zrotation
									JOINT HeadTop_End
									{
										OFFSET 0.000000 24.646606 12.978600
										CHANNELS 3 Xrotation Yrotation Zrotation
										End Site
										{
											OFFSET 0 0 0
										}
									}
								}
							}
						}
						JOINT LeftShoulder_virtual
						{
							OFFSET 0.000000 0.000000 0.000000
							CHANNELS 3 Xrotation Yrotation Zrotation
							JOINT LeftShoulder
							{
								OFFSET 8.476499 7.247704 -3.868750
								CHANNELS 3 Xrotation Yrotation Zrotation
								JOINT LeftShoulder_split
								{
									OFFSET 8.476499 7.247704 -3.868750
									CHANNELS 3 Xrotation Yrotation Zrotation
									JOINT LeftArm
									{
										OFFSET 9.308998 -2.777710 0.208600
										CHANNELS 3 Xrotation Yrotation Zrotation
										JOINT LeftForeArm
										{
											OFFSET 29.972298 0.000000 0.000000
											CHANNELS 3 Xrotation Yrotation Zrotation
											JOINT LeftHand
											{
												OFFSET 26.026505 0.000000 0.000000
												CHANNELS 3 Xrotation Yrotation Zrotation
												End Site
												{
													OFFSET 0 0 0
												}
											}
										}
									}
								}
							}
						}
						JOINT RightShoulder_virtual
						{
							OFFSET 0.000000 0.000000 0.000000
							CHANNELS 3 Xrotation Yrotation Zrotation
							JOINT RightShoulder
							{
								OFFSET -7.570500 7.247704 -3.868750
								CHANNELS 3 Xrotation Yrotation Zrotation
								JOINT RightShoulder_split
								{
									OFFSET -7.570500 7.247704 -3.868750
									CHANNELS 3 Xrotation Yrotation Zrotation
									JOINT RightArm
									{
										OFFSET -9.308998 -2.777710 0.208500
										CHANNELS 3 Xrotation Yrotation Zrotation
										JOINT RightForeArm
										{
											OFFSET -29.972300 0.000000 0.000000
											CHANNELS 3 Xrotation Yrotation Zrotation
											JOINT RightHand
											{
												OFFSET -26.026505 0.000000 0.000000
												CHANNELS 3 Xrotation Yrotation Zrotation
												End Site
												{
													OFFSET 0 0 0
												}
											}
										}
									}
								}
							}
						}
					}
				}
			}
		}
	}
}
MOTION
Frames: 9
Frame Time: 0.03333333
-12.293566 66.401703 -125.362106 0.000000 0.000000 0.000000 164.197365 -74.650559 157.842707 -53.893369 -10.484601 44.541778 35.154874 -13.373331 -5.776644 19.395803 3.883675 -17.879743 -1.595156 1.801106 1.752960 0.000000 0.000000 0.000000 160.882592 -74.043929 154.913540 -39.077384 0.544313 -36.824289 44.763209 6.960410 5.384198 -2.201298 -2.315890 19.346398 -8.687235 0.392318 1.605537 0.000000 0.000000 0.000000 161.538373 -75.414823 154.996895 5.143736 9.243265 1.261826 -0.214114 12.602979 2.694307 -0.169947 2.616701 0.930491 0.000000 0.000000 0.000000 8.861770 14.627453 0.431229 4.503207 9.613635 -6.122469 -9.915526 16.928429 7.565288 0.000000 0.000000 0.000000 6.249909 15.362506 0.186464 6.577865 9.329907 -11.669795 12.666073 1.168693 -1.426570 -52.174910 -34.985564 -47.252690 37.088204 -87.410411 33.260262 0.000000 0.000000 0.000000 7.447252 15.328352 1.403784 -13.703943 3.354877 -3.666714 12.404411 -0.522963 -5.283864 -92.944053 37.533057 110.170808 -7.845504 40.685504 4.805602 0.000000 0.000000 0.000000 
-10.303850 67.552727 -128.917099 0.000000 0.000000 0.000000 163.345968 -76.100711 156.976680 -56.099875 -8.738370 42.519615 36.185584 -13.124612 -5.080722 19.062348 3.158440 -18.187093 -2.592372 1.557393 1.957611 0.000000 0.000000 0.000000 162.726539 -74.883667 156.872834 -38.514166 -3.640685 -31.172860 50.094708 5.258282 5.973386 -6.412696 -5.482026 17.458015 -8.648453 0.598309 1.239936 0.000000 0.000000 0.000000 164.175795 -74.441795 157.091373 5.885725 8.680586 1.346829 -0.389448 11.745107 2.948980 0.069262 2.507101 0.825488 0.000000 0.000000 0.000000 8.945717 13.931118 0.602237 3.483474 10.509861 -7.042429 -10.878540 18.328210 8.188202 0.000000 0.000000 0.000000 6.447536 14.499107 0.531322 6.020106 8.911474 -11.511439 13.668704 4.728217 -1.928062 -52.529913 -34.724706 -48.206061 49.403199 -87.895314 45.356967 0.000000 0.000000 0.000000 7.427520 14.468516 1.555974 -13.651255 2.534648 -4.488144 12.711733 -0.326129 -6.525851 -93.261076 38.763895 110.468481 -7.668422 40.387066 4.644860 0.000000 0.000000 0.000000 
-8.774104 68.513535 -131.006027 0.000000 0.000000 0.000000 161.383163 -77.724684 154.944740 -59.123176 -7.675327 40.050307 39.547782 -12.170987 -4.314313 18.167554 3.145448 -17.227211 -3.772965 1.502085 1.433411 0.000000 0.000000 0.000000 164.154485 -75.487852 158.397059 -36.994261 -7.165491 -26.410666 53.071810 4.164795 5.853548 -10.467076 -7.977195 16.297378 -8.415762 0.860520 1.001476 0.000000 0.000000 0.000000 166.525585 -73.639780 159.225903 6.375004 8.463937 1.456284 -0.557635 11.064509 3.114466 0.175885 2.232676 0.929908 0.000000 0.000000 0.000000 9.216463 13.403246 0.634468 2.673586 11.009065 -7.912447 -11.501123 19.506909 8.380179 0.000000 0.000000 0.000000 6.739412 13.824137 0.710210 5.521841 8.738350 -11.575053 14.169174 7.437546 -1.621541 -52.973007 -34.711909 -49.084400 38.916622 -87.540909 34.549723 0.000000 0.000000 0.000000 7.534168 13.801166 1.568730 -13.596266 1.711960 -5.090446 12.608229 -0.465059 -7.444880 -93.572799 40.270874 110.641893 -7.307122 40.213931 4.307800 0.000000 0.000000 0.000000 
-8.055261 69.189072 -132.144302 0.000000 0.000000 0.000000 158.638971 -78.940465 152.197501 -61.984800 -6.803650 38.257993 43.171508 -10.833897 -3.846256 17.351015 3.825614 -15.361451 -3.662490 1.695401 0.260865 0.000000 0.000000 0.000000 164.210739 -75.947626 158.546394 -35.329447 -9.320963 -23.449172 53.127619 3.962494 5.155092 -13.455899 -9.439673 15.727907 -7.215959 1.084061 1.096183 0.000000 0.000000 0.000000 168.186414 -73.308748 161.027351 6.653604 8.501123 1.389919 -0.658581 10.595343 3.137298 0.115888 1.661601 1.003153 0.000000 0.000000 0.000000 9.487417 13.060552 0.547601 2.033206 11.111205 -8.517993 -11.605577 20.284605 8.309369 0.000000 0.000000 0.000000 7.017637 13.348119 0.709444 5.118801 8.975047 -11.522262 13.897527 9.289280 -0.889832 -53.268270 -34.732837 -49.674576 22.343769 -86.251321 17.598860 0.000000 0.000000 0.000000 7.646870 13.327904 1.460871 -13.550969 0.829851 -5.387463 12.331264 -0.371925 -8.394866 -94.068883 41.911817 110.930612 -6.773882 39.635922 3.855422 0.000000 0.000000 0.000000 
-7.952767 69.588608 -132.617691 0.000000 0.000000 0.000000 157.237416 -79.275192 150.981700 -63.757548 -5.784712 37.735286 45.087902 -9.992372 -3.668933 16.915448 4.440105 -13.939362 -2.723171 1.991131 -0.763318 0.000000 0.000000 0.000000 164.380961 -75.982412 158.948570 -34.346050 -9.864958 -22.672297 51.994569 4.539714 4.363021 -15.197608 -9.729731 15.107774 -4.213752 1.196113 1.522682 0.000000 0.000000 0.000000 169.321605 -73.222865 162.571698 6.873261 8.641815 1.051645 -0.675011 10.341250 3.075561 -0.066188 1.214524 0.903564 0.000000 0.000000 0.000000 9.607322 12.868391 0.405675 1.666062 10.903318 -8.809234 -11.226066 20.550181 8.125949 0.000000 0.000000 0.000000 7.198548 13.060722 0.619414 4.826802 9.521239 -11.126181 12.842984 10.170089 -0.559020 -53.191068 -34.772138 -49.832903 13.793670 -84.534137 8.684119 0.000000 0.000000 0.000000 7.646946 13.027385 1.332730 -13.543439 -0.174637 -5.388761 11.987481 -0.069674 -9.191343 -94.658349 43.546059 111.577117 -6.151787 38.506680 3.418268 0.000000 0.000000 0.000000 
-8.382206 69.725548 -132.600311 0.000000 0.000000 0.000000 157.713590 -78.890447 151.890785 -63.920243 -4.451025 38.155619 44.812110 -9.667279 -3.543345 16.838380 4.767751 -13.191668 -1.951734 2.218428 -1.205277 0.000000 0.000000 0.000000 163.915852 -75.733097 158.750139 -34.236026 -9.104553 -23.585931 51.154596 5.660152 3.874330 -15.567789 -9.257114 14.472322 -0.694222 1.198657 2.064213 0.000000 0.000000 0.000000 169.623076 -73.228534 163.340859 7.095371 8.691117 0.426071 -0.655966 10.241198 2.988608 -0.192170 1.066396 0.812166 0.000000 0.000000 0.000000 9.556659 12.772236 0.290032 1.590152 10.377500 -8.752623 -10.450278 20.085838 7.955665 0.000000 0.000000 0.000000 7.175534 12.918349 0.566562 4.654684 10.183424 -10.364290 11.327823 9.642849 -0.514690 -52.667216 -34.761797 -49.565501 10.568303 -83.337324 5.135369 0.000000 0.000000 0.000000 7.527778 12.850817 1.286448 -13.571619 -1.366523 -5.193106 11.657360 0.352291 -9.890622 -94.987857 44.796967 112.444735 -5.569526 37.271103 3.129276 0.000000 0.000000 0.000000 
-8.974198 69.731674 -132.206207 0.000000 0.000000 0.000000 159.935150 -78.129072 154.811538 -63.039777 -2.926475 38.943830 43.302006 -9.842005 -3.251830 17.212852 4.658744 -13.024561 -1.660761 2.303317 -0.941480 0.000000 0.000000 0.000000 163.515985 -75.469069 158.744047 -34.783790 -7.535217 -25.308711 51.436973 6.976917 3.791150 -14.672798 -8.321971 14.418992 1.477496 1.028640 2.420765 0.000000 0.000000 0.000000 169.199044 -73.267364 163.379942 7.280442 8.540681 -0.389040 -0.692309 10.208897 2.947634 0.054758 1.074616 0.713126 0.000000 0.000000 0.000000 9.247202 12.726166 0.301919 1.720045 9.668178 -8.419231 -9.604840 19.007054 7.959783 0.000000 0.000000 0.000000 6.906157 12.857196 0.580451 4.612393 10.811022 -9.424854 9.872251 8.238674 -0.724786 -51.751828 -34.783582 -49.047674 10.573910 -83.067292 4.798558 0.000000 0.000000 0.000000 7.272004 12.762742 1.356527 -13.658730 -2.753416 -4.961861 11.497118 0.999179 -10.619795 -94.857811 45.218188 113.224230 -5.186505 36.229762 3.062266 0.000000 0.000000 0.000000 
-9.308315 69.669968 -131.676407 0.000000 0.000000 0.000000 163.489143 -77.234802 159.110732 -61.761214 -1.742617 39.395872 42.024617 -10.507601 -2.841006 17.996775 3.985367 -13.332299 -2.211493 2.209493 -0.019861 0.000000 0.000000 0.000000 164.546279 -75.277448 160.444217 -35.356232 -5.980373 -26.792990 52.671673 8.193200 3.940232 -13.261486 -7.078474 14.932189 1.412223 0.754461 2.526082 0.000000 0.000000 0.000000 168.574273 -73.374550 163.024895 7.425870 8.242467 -1.162520 -0.818991 10.212957 2.980934 0.324518 1.448801 0.652783 0.000000 0.000000 0.000000 8.812309 12.712228 0.449206 2.153183 8.780895 -7.912066 -8.900443 17.513133 8.099496 0.000000 0.000000 0.000000 6.431207 12.860313 0.673715 4.716596 11.209414 -8.638203 8.733717 6.221688 -0.896584 -50.492402 -34.994809 -48.249054 12.933574 -83.334790 6.735351 0.000000 0.000000 0.000000 6.930735 12.774510 1.564664 -13.781834 -4.133465 -4.841323 11.436123 1.615704 -11.189630 -94.359412 44.629224 113.838947 -5.067206 35.705347 3.183305 0.000000 0.000000 0.000000 
-9.205794 69.803215 -131.084366 0.000000 0.000000 0.000000 166.969288 -76.538349 163.321967 -60.724726 -1.341729 38.972294 41.947962 -10.920156 -2.502056 18.733636 3.407837 -13.254676 -3.062285 2.009786 0.941168 0.000000 0.000000 0.000000 166.769464 -75.223216 163.537501 -35.520925 -5.056766 -27.519175 53.699186 8.905286 4.133612 -12.348711 -6.009058 15.070029 0.264269 0.528948 2.494527 0.000000 0.000000 0.000000 168.024744 -73.484448 162.450066 7.531583 7.845570 -1.686524 -1.022703 10.237744 3.052528 0.429495 1.906434 0.562117 0.000000 0.000000 0.000000 8.417749 12.727234 0.652553 2.869823 7.800700 -7.348141 -8.404572 15.793426 8.269234 0.000000 0.000000 0.000000 5.870609 12.916274 0.768699 4.922796 11.303731 -8.215293 8.314711 4.657195 -0.563717 -49.212643 -35.501725 -47.207822 17.190365 -83.583566 10.446074 0.000000 0.000000 0.000000 6.603125 12.874434 1.809061 -13.897761 -5.306718 -4.907901 11.156229 2.027375 -11.533953 -93.913079 43.218500 114.427129 -5.176912 35.623453 3.406975 0.000000 0.000000 0.000000 
